:SAMPLES-PER-SECOND 30
:FULLY-SPECIFIED
:DEGREES
1171
root  -65.8989 40.4146 16.7973 174.316 10.0633 176.09
RightUpLeg  -9.97948 -24.6406 -14.8607
RightLeg  9.02848 -12.0955 0.510389
RightFoot  0.289753 -0.0180616 0.205578
RightToes  3.49245e-010 0 -3.6325e-017
Spine  7.62086 -2.67312 -6.5014
Spine1  10.9357 -3.94557 1.63765
HEad  -8.33285 -16.4301 9.73011
LeftShoulder1  0.418765 2.27157 -27.8383
LeftArm  -9.90173 6.8435 -33.0964
LeftForeArm  55.9401 -78.6832 -76.9162
LeftHand  -0.0750987 0.818439 1.81906
RightShoulder  -0.394355 -4.69118 26.232
RightArm  -15.2518 -12.5454 42.6913
RightForeArm  103.959 76.2636 126.57
RightHand  -0.0690777 -1.48497 -1.8248
LeftUpLeg  4.44384 10.4733 0.449923
LeftLeg  11.5327 42.5559 4.0847
LeftFoot  -4.32483 0.134482 -1.78269
LeftToes  -2.21735e-009 9.83027e-011 -4.04511e-011
1172
root  -65.4634 40.437 16.7027 173.498 13.6777 175.586
RightUpLeg  -8.39121 -22.5353 -16.2841
RightLeg  6.9446 -18.444 1.50209
RightFoot  1.25909 0.104035 -0.866437
RightToes  3.49245e-010 0 -3.6325e-017
Spine  8.32079 -2.52377 -7.71991
Spine1  10.7066 -4.40743 3.56881
HEad  -8.53038 -16.7989 9.30129
LeftShoulder1  0.420479 2.26782 -27.8723
LeftArm  -9.95145 6.21424 -33.384
LeftForeArm  55.5417 -78.6645 -76.5352
LeftHand  -0.0905201 0.829885 2.2131
RightShoulder  -0.375158 -4.64395 25.8947
RightArm  -15.5608 -13.3397 42.781
RightForeArm  105.933 75.8097 128.94
RightHand  -0.0880578 -1.72344 -2.52837
LeftUpLeg  6.43961 11.1 1.19874
LeftLeg  10.2593 45.3144 3.02368
LeftFoot  -3.64126 0.153737 -1.9439
LeftToes  -2.21735e-009 9.83027e-011 -4.04511e-011
1173
root  -64.9948 40.4077 16.5997 174.148 16.4461 175.219
RightUpLeg  -8.32884 -21.9394 -16.6463
RightLeg  5.37695 -23.7252 2.55489
RightFoot  2.24664 0.165105 -1.25676
RightToes  3.49245e-010 0 -3.6325e-017
Spine  7.73147 -2.89182 -8.22901
Spine1  10.1517 -5.05921 4.73195
HEad  -8.62164 -17.1026 9.3097
LeftShoulder1  0.484978 2.08058 -27.9436
LeftArm  -9.89487 5.83035 -33.3492
LeftForeArm  56.1845 -78.694 -77.3184
LeftHand  -0.10231 0.62791 2.43459
RightShoulder  -0.373182 -4.6443 25.7083
RightArm  -15.7115 -14.3903 42.3743
RightForeArm  108.839 75.15 132.054
RightHand  -0.0874468 -1.89784 -2.56385
LeftUpLeg  5.97507 10.9394 1.21223
LeftLeg  11.0278 47.8325 4.20917
LeftFoot  -3.04234 0.244763 -3.13106
LeftToes  -2.21735e-009 9.83027e-011 -4.04511e-011
1174
root  -64.4398 40.3516 16.4587 174.64 19.457 174.725
RightUpLeg  -8.41372 -21.2381 -16.3437
RightLeg  4.57656 -27.3496 2.9371
RightFoot  2.79422 0.158074 -1.13076
RightToes  3.49245e-010 0 -3.6325e-017
Spine  7.28177 -3.07093 -8.61702
Spine1  9.66395 -5.43796 5.63137
HEad  -8.7305 -18.0965 9.02139
LeftShoulder1  0.374363 2.40899 -28.0438
LeftArm  -9.92504 4.83746 -33.8761
LeftForeArm  55.1753 -78.6435 -75.635
LeftHand  -0.0807309 0.925378 1.99784
RightShoulder  -0.400403 -4.72434 25.8456
RightArm  -15.5062 -14.8251 41.6763
RightForeArm  109.863 74.5901 134.169
RightHand  -0.121072 -1.25017 -3.24047
LeftUpLeg  6.14033 11.566 1.80478
LeftLeg  11.0548 49.8398 3.96913
LeftFoot  -2.54174 0.280358 -3.4415
LeftToes  -2.21735e-009 9.83027e-011 -4.04511e-011
1175
root  -63.7749 40.3453 16.2489 174.252 22.1623 174.233
RightUpLeg  -7.9653 -20.6155 -15.9071
RightLeg  5.19778 -30.0626 2.57908
RightFoot  3.77286 0.103377 -0.556111
RightToes  3.49245e-010 0 -3.6325e-017
Spine  7.38293 -3.17041 -9.04983
Spine1  9.61565 -5.86882 6.78735
HEad  -8.98284 -18.5199 8.79008
LeftShoulder1  0.416676 2.27124 -27.6765
LeftArm  -10.473 4.59644 -34.7474
LeftForeArm  54.0502 -78.5802 -74.0575
LeftHand  -0.0832646 0.850491 2.03736
RightShoulder  -0.405506 -4.73978 25.8594
RightArm  -15.4328 -14.8931 41.2809
RightForeArm  110.087 74.3997 134.811
RightHand  -0.0906715 -1.89743 -2.73647
LeftUpLeg  8.06948 11.4597 2.1974
LeftLeg  8.84185 52.4671 2.75591
LeftFoot  -1.31781 0.354845 -3.95193
LeftToes  -2.21735e-009 9.83027e-011 -4.04511e-011
1176
root  -63.0854 40.3826 15.9907 174.637 25.0353 174.429
RightUpLeg  -7.91155 -18.9794 -14.6738
RightLeg  4.29498 -32.3051 3.76401
RightFoot  5.90808 0.376438 -2.21309
RightToes  3.49245e-010 0 -3.6325e-017
Spine  6.98965 -3.46861 -7.75774
Spine1  9.48971 -6.12503 7.03746
HEad  -9.48509 -18.5057 9.03506
LeftShoulder1  0.47848 2.06676 -27.1247
LeftArm  -10.46 5.39916 -34.9595
LeftForeArm  55.9814 -78.6819 -76.1196
LeftHand  -0.0734429 0.865219 1.78736
RightShoulder  -0.400965 -4.70634 26.3735
RightArm  -15.3042 -15.4705 40.4847
RightForeArm  111.967 73.9065 136.645
RightHand  -0.101909 -1.10332 -2.61944
LeftUpLeg  9.64189 11.5224 3.14373
LeftLeg  6.18016 54.8623 1.08534
LeftFoot  -0.116505 0.428146 -4.35448
LeftToes  -2.21735e-009 9.83027e-011 -4.04511e-011
1177
root  -62.3898 40.4137 15.7357 176.292 27.77 175.063
RightUpLeg  -9.37373 -18.0221 -12.5453
RightLeg  3.96972 -30.052 4.7019
RightFoot  6.32384 0.609819 -3.6468
RightToes  3.49245e-010 0 -3.6325e-017
Spine  6.34532 -3.90475 -6.02027
Spine1  8.64224 -6.53954 7.6295
HEad  -9.88645 -18.6114 7.94101
LeftShoulder1  0.493306 2.0374 -27.4887
LeftArm  -11.0016 6.23951 -35.3455
LeftForeArm  57.1527 -78.7352 -76.9926
LeftHand  -0.0710696 0.947438 1.74658
RightShoulder  -0.407316 -4.7413 25.9624
RightArm  -14.9226 -15.4136 40.2021
RightForeArm  113.692 73.3747 138.414
RightHand  -0.0991823 -1.69813 -2.88535
LeftUpLeg  9.32043 11.7655 4.22875
LeftLeg  5.93325 56.7939 1.17428
LeftFoot  0.400799 0.437504 -4.26954
LeftToes  -2.21735e-009 9.83027e-011 -4.04511e-011
1178
root  -61.5461 40.4117 15.4406 177.489 30.6572 176.046
RightUpLeg  -10.8165 -16.6578 -9.70859
RightLeg  5.90021 -28.6217 3.34576
RightFoot  5.05648 0.572768 -3.73199
RightToes  3.49245e-010 0 -3.6325e-017
Spine  5.98515 -4.17758 -4.13645
Spine1  8.12886 -6.78818 7.99052
HEad  -10.3368 -18.6011 7.05015
LeftShoulder1  0.53363 1.91439 -27.4244
LeftArm  -11.5533 7.36697 -35.6496
LeftForeArm  58.4067 -78.7885 -77.9823
LeftHand  -0.0615749 1.01202 1.50571
RightShoulder  -0.401353 -4.71857 26.0712
RightArm  -14.7687 -15.8542 39.7399
RightForeArm  116.652 72.6586 140.715
RightHand  -0.108318 -1.789 -3.32027
LeftUpLeg  9.79449 12.42 6.14117
LeftLeg  6.06195 55.7206 1.19363
LeftFoot  -0.269357 0.43461 -4.50745
LeftToes  -2.21735e-009 9.83027e-011 -4.04511e-011
1179
root  -60.7756 40.3626 15.1447 178.192 32.6864 176.518
RightUpLeg  -11.7996 -16.2558 -7.98364
RightLeg  8.01456 -26.8625 2.35788
RightFoot  4.10737 0.653276 -4.61251
RightToes  3.49245e-010 0 -3.6325e-017
Spine  5.97008 -4.84433 -2.87334
Spine1  7.74424 -7.50222 8.50929
HEad  -10.67 -17.9553 6.80217
LeftShoulder1  0.562191 1.82636 -27.3527
LeftArm  -12.4037 8.40027 -35.9071
LeftForeArm  60.302 -78.8606 -79.837
LeftHand  -0.0429378 1.06339 1.01696
RightShoulder  -0.322957 -4.48638 25.7454
RightArm  -14.5925 -16.1169 39.3089
RightForeArm  117.245 72.11 142.077
RightHand  -0.113168 -0.491429 -2.6616
LeftUpLeg  10.0351 12.3257 7.13917
LeftLeg  5.37684 46.5437 0.217891
LeftFoot  -3.64539 0.425468 -6.07872
LeftToes  -2.21735e-009 9.83027e-011 -4.04511e-011
1180
root  -59.9437 40.2602 14.9607 178.94 36.0532 177.098
RightUpLeg  -13.4782 -15.9959 -5.39189
RightLeg  10.8495 -23.8241 0.848062
RightFoot  2.6075 0.703245 -5.58684
RightToes  3.49245e-010 0 -3.6325e-017
Spine  6.38547 -4.38553 -2.15316
Spine1  6.74082 -7.12608 9.55711
HEad  -10.6974 -17.2647 6.45165
LeftShoulder1  0.608649 1.71339 -27.8653
LeftArm  -12.5551 8.59446 -35.8483
LeftForeArm  60.611 -78.8722 -79.9048
LeftHand  -0.0338824 1.02486 0.744302
RightShoulder  -0.29984 -4.43188 25.1169
RightArm  -14.3706 -16.2305 39.0303
RightForeArm  116.833 71.5099 143.331
RightHand  -0.132134 -1.83677 -3.87141
LeftUpLeg  8.88001 12.8813 7.9509
LeftLeg  7.60174 34.0293 1.1315
LeftFoot  -8.00453 0.231422 -5.75586
LeftToes  -2.21735e-009 9.83027e-011 -4.04511e-011
1181
root  -59.1483 40.1986 14.7492 178.763 39.3838 177.684
RightUpLeg  -13.3228 -15.2329 -3.46903
RightLeg  12.6331 -21.2556 -0.00861109
RightFoot  0.888307 0.616825 -5.69092
RightToes  3.49245e-010 0 -3.6325e-017
Spine  6.8337 -3.796 -1.34662
Spine1  6.89055 -6.52658 10.0057
HEad  -10.437 -16.8482 6.2981
LeftShoulder1  0.55562 1.88322 -28.1512
LeftArm  -12.3186 7.39185 -36.505
LeftForeArm  56.7623 -78.7134 -75.8314
LeftHand  -0.0370751 1.01161 0.759689
RightShoulder  -0.271455 -4.35079 24.7789
RightArm  -14.6306 -15.7104 38.4977
RightForeArm  115.75 71.4574 143.284
RightHand  -0.211328 -1.1735 -5.72785
LeftUpLeg  8.05427 15.4834 8.93572
LeftLeg  10.8287 20.0586 2.09059
LeftFoot  -10.7454 0.068846 -2.49948
LeftToes  -2.21735e-009 9.83027e-011 -4.04511e-011
1182
root  -58.3889 40.145 14.5139 178.225 43.0344 178.032
RightUpLeg  -12.5429 -14.4596 -2.02346
RightLeg  13.9066 -18.4594 -0.387254
RightFoot  -0.87412 0.520771 -5.74074
RightToes  3.49245e-010 0 -3.6325e-017
Spine  7.00065 -3.31516 0.0855707
Spine1  7.34221 -5.63006 8.92307
HEad  -9.37895 -16.5424 6.03021
LeftShoulder1  0.532575 1.95242 -28.1959
LeftArm  -12.206 6.48552 -37.0129
LeftForeArm  53.1754 -78.5122 -72.1102
LeftHand  -0.0434792 0.861675 0.934726
RightShoulder  -0.35895 -4.61168 25.3531
RightArm  -14.1799 -14.0352 37.9281
RightForeArm  115.177 72.6068 140.597
RightHand  -0.124774 -1.286 -3.3721
LeftUpLeg  7.11804 16.5406 9.01798
LeftLeg  14.6057 10.5209 2.8372
LeftFoot  -12.2754 0.0488002 -3.02683
LeftToes  -2.21735e-009 9.83027e-011 -4.04511e-011
